<mxfile host="app.diagrams.net" agent="Mozilla/5.0 (Windows NT 10.0; Win64; x64) AppleWebKit/537.36 (KHTML, like Gecko) Chrome/128.0.0.0 Safari/537.36 Edg/128.0.0.0" version="24.7.7">
  <diagram name="第 1 页" id="28MQZ7CTFKcOH5NXV485">
    <mxGraphModel>
      <root>
        <mxCell id="0" />
        <mxCell id="1" parent="0" />
        <mxCell id="2" value="操作系统" style="whiteSpace=wrap;strokeWidth=2;verticalAlign=top;" vertex="1" parent="1">
          <mxGeometry y="277" width="128" height="703" as="geometry" />
        </mxCell>
        <mxCell id="3" value="Windows" style="ellipse;aspect=fixed;strokeWidth=2;whiteSpace=wrap;" vertex="1" parent="1">
          <mxGeometry x="25" y="388" width="78" height="78" as="geometry" />
        </mxCell>
        <mxCell id="4" value="Linux" style="ellipse;aspect=fixed;strokeWidth=2;whiteSpace=wrap;" vertex="1" parent="1">
          <mxGeometry x="37" y="616" width="54" height="54" as="geometry" />
        </mxCell>
        <mxCell id="5" value="macOS" style="ellipse;aspect=fixed;strokeWidth=2;whiteSpace=wrap;" vertex="1" parent="1">
          <mxGeometry x="33" y="758" width="63" height="63" as="geometry" />
        </mxCell>
        <mxCell id="6" value="FreeBSD" style="ellipse;aspect=fixed;strokeWidth=2;whiteSpace=wrap;" vertex="1" parent="1">
          <mxGeometry x="27" y="872" width="74" height="74" as="geometry" />
        </mxCell>
        <mxCell id="7" value="云主机" style="whiteSpace=wrap;strokeWidth=2;verticalAlign=top;" vertex="1" parent="1">
          <mxGeometry x="493" width="543" height="264" as="geometry" />
        </mxCell>
        <mxCell id="8" value="虚拟CPU" style="ellipse;aspect=fixed;strokeWidth=2;whiteSpace=wrap;" vertex="1" parent="1">
          <mxGeometry x="673" y="36" width="77" height="77" as="geometry" />
        </mxCell>
        <mxCell id="9" value="虚拟内存" style="ellipse;aspect=fixed;strokeWidth=2;whiteSpace=wrap;" vertex="1" parent="1">
          <mxGeometry x="799" y="71" width="81" height="81" as="geometry" />
        </mxCell>
        <mxCell id="10" value="虚拟硬盘" style="ellipse;aspect=fixed;strokeWidth=2;whiteSpace=wrap;" vertex="1" parent="1">
          <mxGeometry x="930" y="114" width="81" height="81" as="geometry" />
        </mxCell>
        <mxCell id="11" value="虚拟网卡" style="ellipse;aspect=fixed;strokeWidth=2;whiteSpace=wrap;" vertex="1" parent="1">
          <mxGeometry x="518" y="71" width="80" height="80" as="geometry" />
        </mxCell>
        <mxCell id="12" value="硬件设备" style="whiteSpace=wrap;strokeWidth=2;verticalAlign=top;" vertex="1" parent="1">
          <mxGeometry x="178" y="284" width="444" height="690" as="geometry" />
        </mxCell>
        <mxCell id="13" value="主板" style="ellipse;aspect=fixed;strokeWidth=2;whiteSpace=wrap;" vertex="1" parent="1">
          <mxGeometry x="203" y="574" width="48" height="48" as="geometry" />
        </mxCell>
        <mxCell id="14" value="CPU" style="ellipse;aspect=fixed;strokeWidth=2;whiteSpace=wrap;" vertex="1" parent="1">
          <mxGeometry x="301" y="547" width="44" height="44" as="geometry" />
        </mxCell>
        <mxCell id="15" value="内存" style="ellipse;aspect=fixed;strokeWidth=2;whiteSpace=wrap;" vertex="1" parent="1">
          <mxGeometry x="395" y="654" width="48" height="48" as="geometry" />
        </mxCell>
        <mxCell id="16" value="硬盘" style="ellipse;aspect=fixed;strokeWidth=2;whiteSpace=wrap;" vertex="1" parent="1">
          <mxGeometry x="533" y="741" width="49" height="49" as="geometry" />
        </mxCell>
        <mxCell id="17" value="显卡" style="ellipse;aspect=fixed;strokeWidth=2;whiteSpace=wrap;" vertex="1" parent="1">
          <mxGeometry x="204" y="379" width="47" height="47" as="geometry" />
        </mxCell>
        <mxCell id="18" value="网卡" style="ellipse;aspect=fixed;strokeWidth=2;whiteSpace=wrap;" vertex="1" parent="1">
          <mxGeometry x="395" y="536" width="47" height="47" as="geometry" />
        </mxCell>
        <mxCell id="19" value="" style="curved=1;startArrow=none;endArrow=block;exitX=1;exitY=0.5;entryX=0;entryY=0.8;" edge="1" parent="1" source="13" target="14">
          <mxGeometry relative="1" as="geometry">
            <Array as="points">
              <mxPoint x="276" y="598" />
            </Array>
          </mxGeometry>
        </mxCell>
        <mxCell id="20" value="" style="curved=1;startArrow=none;endArrow=block;exitX=0.91;exitY=-0.01;entryX=0.35;entryY=-0.01;" edge="1" parent="1" source="14" target="15">
          <mxGeometry relative="1" as="geometry">
            <Array as="points">
              <mxPoint x="370" y="510" />
            </Array>
          </mxGeometry>
        </mxCell>
        <mxCell id="21" value="" style="curved=1;startArrow=none;endArrow=block;exitX=1;exitY=0.4;entryX=0.01;entryY=0.51;" edge="1" parent="1" source="14" target="18">
          <mxGeometry relative="1" as="geometry">
            <Array as="points">
              <mxPoint x="370" y="560" />
            </Array>
          </mxGeometry>
        </mxCell>
        <mxCell id="22" value="" style="curved=1;startArrow=none;endArrow=block;exitX=0.97;exitY=0.99;entryX=0.19;entryY=0.99;" edge="1" parent="1" source="14" target="9">
          <mxGeometry relative="1" as="geometry">
            <Array as="points">
              <mxPoint x="370" y="618" />
              <mxPoint x="623" y="618" />
              <mxPoint x="648" y="215" />
              <mxPoint x="774" y="215" />
            </Array>
          </mxGeometry>
        </mxCell>
        <mxCell id="23" value="" style="curved=1;startArrow=none;endArrow=block;exitX=1;exitY=0.49;entryX=0.14;entryY=0;" edge="1" parent="1" source="15" target="16">
          <mxGeometry relative="1" as="geometry">
            <Array as="points">
              <mxPoint x="493" y="677" />
            </Array>
          </mxGeometry>
        </mxCell>
        <mxCell id="24" value="" style="curved=1;startArrow=none;endArrow=block;exitX=1;exitY=0.5;entryX=0.1;entryY=0.99;" edge="1" parent="1" source="16" target="10">
          <mxGeometry relative="1" as="geometry">
            <Array as="points">
              <mxPoint x="623" y="765" />
              <mxPoint x="648" y="235" />
              <mxPoint x="905" y="235" />
            </Array>
          </mxGeometry>
        </mxCell>
        <mxCell id="25" value="" style="curved=1;startArrow=none;endArrow=block;exitX=1;exitY=0.5;entryX=0.36;entryY=-0.01;" edge="1" parent="1" source="17" target="14">
          <mxGeometry relative="1" as="geometry">
            <Array as="points">
              <mxPoint x="276" y="403" />
            </Array>
          </mxGeometry>
        </mxCell>
        <mxCell id="26" value="" style="curved=1;startArrow=none;endArrow=block;exitX=1;exitY=0.01;entryX=0;entryY=0.81;" edge="1" parent="1" source="18" target="10">
          <mxGeometry relative="1" as="geometry">
            <Array as="points">
              <mxPoint x="468" y="510" />
              <mxPoint x="623" y="510" />
              <mxPoint x="648" y="195" />
              <mxPoint x="905" y="195" />
            </Array>
          </mxGeometry>
        </mxCell>
        <mxCell id="27" value="" style="curved=1;startArrow=none;endArrow=block;exitX=1.01;exitY=0.51;entryX=0.43;entryY=1;" edge="1" parent="1" source="18" target="11">
          <mxGeometry relative="1" as="geometry">
            <Array as="points">
              <mxPoint x="493" y="560" />
            </Array>
          </mxGeometry>
        </mxCell>
        <mxCell id="28" value="" style="curved=1;startArrow=none;endArrow=block;exitX=0.99;exitY=0.5;entryX=0;entryY=0.21;" edge="1" parent="1" source="8" target="9">
          <mxGeometry relative="1" as="geometry">
            <Array as="points">
              <mxPoint x="774" y="74" />
            </Array>
          </mxGeometry>
        </mxCell>
        <mxCell id="29" value="" style="curved=1;startArrow=none;endArrow=block;exitX=1;exitY=0.49;entryX=0;entryY=0.17;" edge="1" parent="1" source="9" target="10">
          <mxGeometry relative="1" as="geometry">
            <Array as="points">
              <mxPoint x="905" y="111" />
            </Array>
          </mxGeometry>
        </mxCell>
        <mxCell id="30" value="" style="curved=1;startArrow=none;endArrow=block;exitX=0;exitY=0.77;entryX=1;entryY=0.78;" edge="1" parent="1" source="9" target="11">
          <mxGeometry relative="1" as="geometry">
            <Array as="points">
              <mxPoint x="774" y="147" />
              <mxPoint x="623" y="147" />
            </Array>
          </mxGeometry>
        </mxCell>
        <mxCell id="31" value="" style="curved=1;startArrow=none;endArrow=block;exitX=0.43;exitY=1;entryX=1.01;entryY=0.81;" edge="1" parent="1" source="11" target="18">
          <mxGeometry relative="1" as="geometry">
            <Array as="points">
              <mxPoint x="493" y="589" />
              <mxPoint x="468" y="589" />
            </Array>
          </mxGeometry>
        </mxCell>
        <mxCell id="32" value="" style="curved=1;startArrow=none;endArrow=block;exitX=1;exitY=0.22;entryX=0;entryY=0.5;" edge="1" parent="1" source="11" target="8">
          <mxGeometry relative="1" as="geometry">
            <Array as="points">
              <mxPoint x="623" y="74" />
            </Array>
          </mxGeometry>
        </mxCell>
        <mxCell id="33" value="" style="curved=1;startArrow=none;endArrow=block;exitX=0.81;exitY=0.01;entryX=0.42;entryY=0;" edge="1" parent="1" source="3" target="13">
          <mxGeometry relative="1" as="geometry">
            <Array as="points">
              <mxPoint x="128" y="324" />
              <mxPoint x="178" y="324" />
            </Array>
          </mxGeometry>
        </mxCell>
        <mxCell id="34" value="" style="curved=1;startArrow=none;endArrow=block;exitX=0.89;exitY=0.01;entryX=0.4;entryY=-0.01;" edge="1" parent="1" source="3" target="14">
          <mxGeometry relative="1" as="geometry">
            <Array as="points">
              <mxPoint x="128" y="344" />
              <mxPoint x="276" y="344" />
            </Array>
          </mxGeometry>
        </mxCell>
        <mxCell id="35" value="" style="curved=1;startArrow=none;endArrow=block;exitX=1.01;exitY=0.77;entryX=0.39;entryY=-0.01;" edge="1" parent="1" source="3" target="15">
          <mxGeometry relative="1" as="geometry">
            <Array as="points">
              <mxPoint x="128" y="461" />
              <mxPoint x="370" y="461" />
            </Array>
          </mxGeometry>
        </mxCell>
        <mxCell id="36" value="" style="curved=1;startArrow=none;endArrow=block;exitX=1.01;exitY=0.93;entryX=0.39;entryY=0;" edge="1" parent="1" source="3" target="16">
          <mxGeometry relative="1" as="geometry">
            <Array as="points">
              <mxPoint x="128" y="481" />
              <mxPoint x="493" y="481" />
            </Array>
          </mxGeometry>
        </mxCell>
        <mxCell id="37" value="" style="curved=1;startArrow=none;endArrow=block;exitX=0.75;exitY=0;entryX=0.23;entryY=0;" edge="1" parent="1" source="4" target="13">
          <mxGeometry relative="1" as="geometry">
            <Array as="points">
              <mxPoint x="128" y="510" />
              <mxPoint x="178" y="510" />
            </Array>
          </mxGeometry>
        </mxCell>
        <mxCell id="38" value="" style="curved=1;startArrow=none;endArrow=block;exitX=0.79;exitY=0;entryX=0;entryY=0.08;" edge="1" parent="1" source="4" target="14">
          <mxGeometry relative="1" as="geometry">
            <Array as="points">
              <mxPoint x="128" y="530" />
              <mxPoint x="276" y="530" />
            </Array>
          </mxGeometry>
        </mxCell>
        <mxCell id="39" value="" style="curved=1;startArrow=none;endArrow=block;exitX=1;exitY=0.77;entryX=0;entryY=0.49;" edge="1" parent="1" source="4" target="15">
          <mxGeometry relative="1" as="geometry">
            <Array as="points">
              <mxPoint x="128" y="677" />
            </Array>
          </mxGeometry>
        </mxCell>
        <mxCell id="40" value="" style="curved=1;startArrow=none;endArrow=block;exitX=0.85;exitY=1;entryX=0.01;entryY=0.28;" edge="1" parent="1" source="4" target="16">
          <mxGeometry relative="1" as="geometry">
            <Array as="points">
              <mxPoint x="128" y="736" />
              <mxPoint x="493" y="736" />
            </Array>
          </mxGeometry>
        </mxCell>
        <mxCell id="41" value="" style="curved=1;startArrow=none;endArrow=block;exitX=1;exitY=0.24;entryX=0.35;entryY=1;" edge="1" parent="1" source="5" target="13">
          <mxGeometry relative="1" as="geometry">
            <Array as="points">
              <mxPoint x="128" y="756" />
              <mxPoint x="178" y="756" />
            </Array>
          </mxGeometry>
        </mxCell>
        <mxCell id="42" value="" style="curved=1;startArrow=none;endArrow=block;exitX=1;exitY=0.4;entryX=0.39;entryY=0.99;" edge="1" parent="1" source="5" target="14">
          <mxGeometry relative="1" as="geometry">
            <Array as="points">
              <mxPoint x="128" y="776" />
              <mxPoint x="276" y="776" />
            </Array>
          </mxGeometry>
        </mxCell>
        <mxCell id="43" value="" style="curved=1;startArrow=none;endArrow=block;exitX=1;exitY=0.71;entryX=0.32;entryY=0.99;" edge="1" parent="1" source="5" target="15">
          <mxGeometry relative="1" as="geometry">
            <Array as="points">
              <mxPoint x="128" y="816" />
              <mxPoint x="370" y="816" />
            </Array>
          </mxGeometry>
        </mxCell>
        <mxCell id="44" value="" style="curved=1;startArrow=none;endArrow=block;exitX=1;exitY=0.87;entryX=0.05;entryY=1;" edge="1" parent="1" source="5" target="16">
          <mxGeometry relative="1" as="geometry">
            <Array as="points">
              <mxPoint x="128" y="836" />
              <mxPoint x="493" y="836" />
            </Array>
          </mxGeometry>
        </mxCell>
        <mxCell id="45" value="" style="curved=1;startArrow=none;endArrow=block;exitX=1;exitY=0.08;entryX=0.41;entryY=1;" edge="1" parent="1" source="6" target="13">
          <mxGeometry relative="1" as="geometry">
            <Array as="points">
              <mxPoint x="128" y="856" />
              <mxPoint x="178" y="856" />
            </Array>
          </mxGeometry>
        </mxCell>
        <mxCell id="46" value="" style="curved=1;startArrow=none;endArrow=block;exitX=1;exitY=0.24;entryX=0.43;entryY=0.99;" edge="1" parent="1" source="6" target="14">
          <mxGeometry relative="1" as="geometry">
            <Array as="points">
              <mxPoint x="128" y="876" />
              <mxPoint x="276" y="876" />
            </Array>
          </mxGeometry>
        </mxCell>
        <mxCell id="47" value="" style="curved=1;startArrow=none;endArrow=block;exitX=1;exitY=0.54;entryX=0.4;entryY=0.99;" edge="1" parent="1" source="6" target="15">
          <mxGeometry relative="1" as="geometry">
            <Array as="points">
              <mxPoint x="128" y="915" />
              <mxPoint x="370" y="915" />
            </Array>
          </mxGeometry>
        </mxCell>
        <mxCell id="48" value="" style="curved=1;startArrow=none;endArrow=block;exitX=1;exitY=0.7;entryX=0.32;entryY=1;" edge="1" parent="1" source="6" target="16">
          <mxGeometry relative="1" as="geometry">
            <Array as="points">
              <mxPoint x="128" y="935" />
              <mxPoint x="493" y="935" />
            </Array>
          </mxGeometry>
        </mxCell>
      </root>
    </mxGraphModel>
  </diagram>
</mxfile>
